<svg xmlns="http://www.w3.org/2000/svg" viewBox="0 0 64 64">
  <rect width="64" height="64" rx="12" fill="#15110f"/>
  <path
    d="M32 18c-5-5-13-6-22-4v32c9-2 17-1 22 4V18Z"
    fill="#e9c176"
    stroke="#fff1c7"
    stroke-width="2"
    stroke-linejoin="round"
  />
  <path
    d="M32 18c5-5 13-6 22-4v32c-9-2-17-1-22 4V18Z"
    fill="#c8954d"
    stroke="#fff1c7"
    stroke-width="2"
    stroke-linejoin="round"
  />
  <path d="M32 18v32" stroke="#fff1c7" stroke-width="2"/>
  <path d="M15 22c5-1 9 0 13 2M15 29c5-1 9 0 13 2M49 22c-5-1-9 0-13 2M49 29c-5-1-9 0-13 2" stroke="#76552f" stroke-width="2" stroke-linecap="round"/>
</svg>
